HIERARCHY
ROOT Model
{
	OFFSET 0 0 0
	CHANNELS 6 Xposition Yposition Zposition Zrotation Xrotation Yrotation
	JOINT Model1
	{
		OFFSET 0 -2.25479 2.99384
		CHANNELS 3 Zrotation Xrotation Yrotation
		JOINT Model2
		{
			OFFSET 12.111 0 0
			CHANNELS 3 Zrotation Xrotation Yrotation
			JOINT Model3
			{
				OFFSET 11.5502 0 0
				CHANNELS 3 Zrotation Xrotation Yrotation
				JOINT Model4
				{
					OFFSET 11.781 0 0
					CHANNELS 3 Zrotation Xrotation Yrotation
					JOINT Model5
					{
						OFFSET 20.0601 0 0
						CHANNELS 3 Zrotation Xrotation Yrotation
						JOINT Model6
						{
							OFFSET 11.1962 0 0
							CHANNELS 3 Zrotation Xrotation Yrotation
							End Site
							{
								OFFSET 0 0 0
							}
						}
					}
					JOINT Model7
					{
						OFFSET 10.8223 0.417534 3.51114
						CHANNELS 3 Zrotation Xrotation Yrotation
						JOINT Model8
						{
							OFFSET -6.07943 0 0
							CHANNELS 3 Zrotation Xrotation Yrotation
							JOINT Model9
							{
								OFFSET -0.277412 10.39 -0.051239
								CHANNELS 3 Zrotation Xrotation Yrotation
								JOINT Model10
								{
									OFFSET -3.4391 -0.282043 1.86679
									CHANNELS 3 Zrotation Xrotation Yrotation
									JOINT Model11
									{
										OFFSET 13.0269 0 0
										CHANNELS 3 Zrotation Xrotation Yrotation
										JOINT Model12
										{
											OFFSET 10.8866 0 0
											CHANNELS 3 Zrotation Xrotation Yrotation
											JOINT Model13
											{
												OFFSET 16.7317 0 0
												CHANNELS 3 Zrotation Xrotation Yrotation
												JOINT Model14
												{
													OFFSET 11.8292 0 0
													CHANNELS 3 Zrotation Xrotation Yrotation
													JOINT Model15
													{
														OFFSET 4.82751 -3.73566 -0.836517
														CHANNELS 3 Zrotation Xrotation Yrotation
														JOINT Model16
														{
															OFFSET 3.75311 -0.0582886 -0.0186462
															CHANNELS 3 Zrotation Xrotation Yrotation
															JOINT Model17
															{
																OFFSET 2.88689 0.0192337 0.014801
																CHANNELS 3 Zrotation Xrotation Yrotation
																End Site
																{
																	OFFSET 0 0 0
																}
															}
														}
													}
													JOINT Model18
													{
														OFFSET 9.72197 -3.06458 0.23877
														CHANNELS 3 Zrotation Xrotation Yrotation
														JOINT Model19
														{
															OFFSET 4.61131 0 0
															CHANNELS 3 Zrotation Xrotation Yrotation
															JOINT Model20
															{
																OFFSET 2.8969 -7.62939e-006 0
																CHANNELS 3 Zrotation Xrotation Yrotation
																End Site
																{
																	OFFSET 0 0 0
																}
															}
														}
													}
													JOINT Model21
													{
														OFFSET 9.54431 -0.745064 0.588928
														CHANNELS 3 Zrotation Xrotation Yrotation
														JOINT Model22
														{
															OFFSET 5.33978 0 0
															CHANNELS 3 Zrotation Xrotation Yrotation
															JOINT Model23
															{
																OFFSET 3.03619 7.62939e-006 0
																CHANNELS 3 Zrotation Xrotation Yrotation
																End Site
																{
																	OFFSET 0 0 0
																}
															}
														}
													}
													JOINT Model24
													{
														OFFSET 9.47758 1.51286 0.485107
														CHANNELS 3 Zrotation Xrotation Yrotation
														JOINT Model25
														{
															OFFSET 4.96136 7.62939e-006 0
															CHANNELS 3 Zrotation Xrotation Yrotation
															JOINT Model26
															{
																OFFSET 2.51965 0 0
																CHANNELS 3 Zrotation Xrotation Yrotation
																End Site
																{
																	OFFSET 0 0 0
																}
															}
														}
													}
													JOINT Model27
													{
														OFFSET 9.34247 3.34117 -0.239288
														CHANNELS 3 Zrotation Xrotation Yrotation
														JOINT Model28
														{
															OFFSET 3.28259 2.28882e-005 0
															CHANNELS 3 Zrotation Xrotation Yrotation
															JOINT Model29
															{
																OFFSET 2.1292 0 0
																CHANNELS 3 Zrotation Xrotation Yrotation
																End Site
																{
																	OFFSET 0 0 0
																}
															}
														}
													}
												}
											}
										}
									}
								}
							}
						}
					}
					JOINT Model30
					{
						OFFSET 10.8223 0.4179 -3.51108
						CHANNELS 3 Zrotation Xrotation Yrotation
						JOINT Model31
						{
							OFFSET 6.07943 0 0
							CHANNELS 3 Zrotation Xrotation Yrotation
							JOINT Model32
							{
								OFFSET 0.277412 -10.39 0.051239
								CHANNELS 3 Zrotation Xrotation Yrotation
								JOINT Model33
								{
									OFFSET 3.4391 0.282043 -1.86679
									CHANNELS 3 Zrotation Xrotation Yrotation
									JOINT Model34
									{
										OFFSET -13.0269 0 0
										CHANNELS 3 Zrotation Xrotation Yrotation
										JOINT Model35
										{
											OFFSET -10.8866 0 0
											CHANNELS 3 Zrotation Xrotation Yrotation
											JOINT Model36
											{
												OFFSET -16.7317 0 0
												CHANNELS 3 Zrotation Xrotation Yrotation
												JOINT Model37
												{
													OFFSET -11.8292 0 0
													CHANNELS 3 Zrotation Xrotation Yrotation
													JOINT Model38
													{
														OFFSET -4.82751 3.73566 0.836517
														CHANNELS 3 Zrotation Xrotation Yrotation
														JOINT Model39
														{
															OFFSET -3.75311 0.0582886 0.0186462
															CHANNELS 3 Zrotation Xrotation Yrotation
															JOINT Model40
															{
																OFFSET -2.88688 -0.0192337 -0.014801
																CHANNELS 3 Zrotation Xrotation Yrotation
																End Site
																{
																	OFFSET 0 0 0
																}
															}
														}
													}
													JOINT Model41
													{
														OFFSET -9.72197 3.06459 -0.23877
														CHANNELS 3 Zrotation Xrotation Yrotation
														JOINT Model42
														{
															OFFSET -4.6113 0 0
															CHANNELS 3 Zrotation Xrotation Yrotation
															JOINT Model43
															{
																OFFSET -2.8969 0 0
																CHANNELS 3 Zrotation Xrotation Yrotation
																End Site
																{
																	OFFSET 0 0 0
																}
															}
														}
													}
													JOINT Model44
													{
														OFFSET -9.5443 0.745064 -0.588928
														CHANNELS 3 Zrotation Xrotation Yrotation
														JOINT Model45
														{
															OFFSET -5.33978 0 0
															CHANNELS 3 Zrotation Xrotation Yrotation
															JOINT Model46
															{
																OFFSET -3.03619 -1.52588e-005 0
																CHANNELS 3 Zrotation Xrotation Yrotation
																End Site
																{
																	OFFSET 0 0 0
																}
															}
														}
													}
													JOINT Model47
													{
														OFFSET -9.47759 -1.51286 -0.485107
														CHANNELS 3 Zrotation Xrotation Yrotation
														JOINT Model48
														{
															OFFSET -4.96136 -1.52588e-005 0
															CHANNELS 3 Zrotation Xrotation Yrotation
															JOINT Model49
															{
																OFFSET -2.51966 0 0
																CHANNELS 3 Zrotation Xrotation Yrotation
																End Site
																{
																	OFFSET 0 0 0
																}
															}
														}
													}
													JOINT Model50
													{
														OFFSET -9.34246 -3.34118 0.239288
														CHANNELS 3 Zrotation Xrotation Yrotation
														JOINT Model51
														{
															OFFSET -3.2826 -2.28882e-005 0
															CHANNELS 3 Zrotation Xrotation Yrotation
															JOINT Model52
															{
																OFFSET -2.1292 0 0
																CHANNELS 3 Zrotation Xrotation Yrotation
																End Site
																{
																	OFFSET 0 0 0
																}
															}
														}
													}
												}
											}
										}
									}
								}
							}
						}
					}
				}
			}
		}
	}
	JOINT Model53
	{
		OFFSET 4.38026 -2.14632 -1.11517
		CHANNELS 3 Zrotation Xrotation Yrotation
		JOINT Model54
		{
			OFFSET 0 0 4.94998
			CHANNELS 3 Zrotation Xrotation Yrotation
			JOINT Model55
			{
				OFFSET 18.5642 0 0
				CHANNELS 3 Zrotation Xrotation Yrotation
				JOINT Model56
				{
					OFFSET 21.2884 0 0
					CHANNELS 3 Zrotation Xrotation Yrotation
					JOINT Model57
					{
						OFFSET 30.261 0 0
						CHANNELS 3 Zrotation Xrotation Yrotation
						JOINT Model58
						{
							OFFSET 11.7259 0 0
							CHANNELS 3 Zrotation Xrotation Yrotation
							JOINT Model59
							{
								OFFSET 10.682 0 0
								CHANNELS 3 Zrotation Xrotation Yrotation
								End Site
								{
									OFFSET 0 0 0
								}
							}
						}
					}
				}
			}
		}
	}
	JOINT Model60
	{
		OFFSET -4.38026 -2.14632 -1.11517
		CHANNELS 3 Zrotation Xrotation Yrotation
		JOINT Model61
		{
			OFFSET 0 0 -4.94998
			CHANNELS 3 Zrotation Xrotation Yrotation
			JOINT Model62
			{
				OFFSET -18.5642 0 0
				CHANNELS 3 Zrotation Xrotation Yrotation
				JOINT Model63
				{
					OFFSET -21.2884 0 0
					CHANNELS 3 Zrotation Xrotation Yrotation
					JOINT Model64
					{
						OFFSET -30.261 0 0
						CHANNELS 3 Zrotation Xrotation Yrotation
						JOINT Model65
						{
							OFFSET -11.7259 0 0
							CHANNELS 3 Zrotation Xrotation Yrotation
							JOINT Model66
							{
								OFFSET -10.682 0 0
								CHANNELS 3 Zrotation Xrotation Yrotation
								End Site
								{
									OFFSET 0 0 0
								}
							}
						}
					}
				}
			}
		}
	}
}
MOTION
Frames: 4
Frame Time: 0.033333
-123.773 162.564 329.221 -163.236 -64.5915 -163.932 -180 4.29621e-031 -90 4.36568 2.41541 6.92491 9.20591 5.29853 3.9421 9.16054 5.38654 3.92596 64.032 -3.76541 -47.5567 -84.5915 5.34478 8.69006 120.092 75.5343 58.4939 12.6199 0.345641 -1.72332 -167.277 84.4999 48.8109 173.701 1.95149 -17.9975 -8.64078e-006 32.1976 3.4395e-005 -107.049 0.0895257 0.582298 1.62631e-006 0.0177093 1.50252e-006 13.9566 -0.0300395 -0.245411 -72.0648 39.0385 39.3397 33.3638 2.10362 14.835 0.588947 0.308273 6.35287 -99.6409 81.413 100.35 -0.0181409 2.77757e-005 -0.117315 -0.124139 0.00241112 -0.799296 -79.8382 79.5773 80.5374 -0.00022577 -0.000220926 2.2196e-005 -0.000956218 0.000122891 -2.73187e-005 -66.7416 80.4058 67.2171 -0.000437126 1.59425e-005 -2.73192e-005 -0.000136595 -0.000109295 -5.46394e-005 -6.42159 81.2158 8.01779 -0.000218559 1.68991e-005 0.000212142 0.000901594 -0.000184814 -0.000218563 -59.9282 75.5373 58.5147 46.0642 31.2072 -9.85597 -167.277 84.4999 48.8109 144.013 -15.0434 -12.2333 8.89349e-006 -2.99546 2.78754e-005 -115.832 9.65848 0.556502 -6.22543e-006 14.5659 2.7564e-006 21.1665 -0.305926 -1.63728 -72.0648 39.0385 39.3397 33.3638 2.10361 14.835 0.588946 0.308273 6.35287 -99.6409 81.413 100.35 -0.0181409 3.00751e-005 -0.117315 -0.124139 0.00241113 -0.799296 -79.8382 79.5773 80.5374 -0.000260645 -0.000218569 2.35655e-005 -0.000956224 0.000122992 -2.73273e-005 -66.7416 80.4058 67.2171 -0.000437131 1.48782e-005 -2.73256e-005 -0.000136602 -0.000109287 -5.4648e-005 -6.42159 81.2158 8.01779 -0.000218565 1.9575e-005 0.000212292 0.000901585 -0.00019125 -0.000218572 0.000811311 0.56661 89.91 6.22443 27.9195 4.14375 3.7043e-005 38.2873 -2.52847e-005 17.7655 57.9575 -18.7555 0.000201176 89.0265 -0.000201136 95.2518 22.9279 49.3025 -35.4947 1.2047e-005 2.33865e-006 -180 -0.566579 -90.09 48.8808 0.0240319 -2.86537 -3.01361e-007 6.13379 -6.76375e-009 20.8495 2.80107 -5.15259 3.97705e-007 4.18224 4.69323e-008 -52.6598 7.36539 -5.71832 -80.1198 0.870272 -3.03033 
-122.525 162.77 334.264 -158.673 -62.7947 -160.95 -180 4.29621e-031 -90 4.48031 2.36954 6.16319 9.27225 5.67075 4.26796 9.23394 5.74005 4.25654 65.0384 -5.81577 -48.5914 -85.212 4.01232 8.79259 120.092 75.5343 58.4939 13.0306 -0.287458 -1.91324 -167.277 84.4999 48.8109 178.207 3.18325 -18.3797 -1.12863e-005 35.7754 3.58745e-005 -102.538 5.19316 0.59711 1.4268e-006 7.5809 1.51577e-006 10.9841 -0.366885 -3.8144 -72.0648 39.0385 39.3397 33.3638 2.10362 14.835 0.588947 0.308273 6.35287 -99.6409 81.413 100.35 -0.0181409 2.77757e-005 -0.117315 -0.124139 0.00241112 -0.799296 -79.8382 79.5773 80.5374 -0.00022577 -0.000220926 2.2196e-005 -0.000956218 0.000122891 -2.73187e-005 -66.7416 80.4058 67.2171 -0.000437126 1.59425e-005 -2.73192e-005 -0.000136595 -0.000109295 -5.46394e-005 -6.42159 81.2158 8.01779 -0.000218559 1.68991e-005 0.000212142 0.000901594 -0.000184814 -0.000218563 -59.9282 75.5373 58.5147 46.684 32.2057 -10.2118 -167.277 84.4999 48.8109 143.945 -11.923 -7.14897 6.59006e-006 1.74228 2.78502e-005 -113.076 11.7664 0.572832 -6.38175e-006 17.6636 2.79981e-006 19.6273 0.0319674 0.184765 -72.0648 39.0385 39.3397 33.3638 2.10361 14.835 0.588946 0.308273 6.35287 -99.6409 81.413 100.35 -0.0181409 3.00751e-005 -0.117315 -0.124139 0.00241113 -0.799296 -79.8382 79.5773 80.5374 -0.000260645 -0.000218569 2.35655e-005 -0.000956224 0.000122992 -2.73273e-005 -66.7416 80.4058 67.2171 -0.000437131 1.48782e-005 -2.73256e-005 -0.000136602 -0.000109287 -5.4648e-005 -6.42159 81.2158 8.01779 -0.000218565 1.9575e-005 0.000212292 0.000901585 -0.00019125 -0.000218572 0.000811311 0.56661 89.91 7.86327 28.7375 5.63692 3.69092e-005 38.0485 -2.5202e-005 9.18322 56.7461 -9.77194 4.55413e-005 85.7023 -4.56002e-005 98.6048 21.7218 42.7582 -35.4947 1.15462e-005 2.23932e-006 -180 -0.566579 -90.09 48.5066 -0.0362422 -7.10779 -3.00292e-007 14.9202 -6.95966e-009 24.6194 1.26047 -0.00329334 3.99619e-007 1.84578 4.68316e-008 -39.0659 8.44451 -7.58681 -91.3701 3.69634 -0.805861 
-121.406 163 339.198 -157.747 -61.3387 -161.743 -180 4.29621e-031 -90 4.70786 2.35899 5.42727 9.60658 5.90797 4.40567 9.57578 5.96245 4.39788 65.6767 -7.03643 -47.6832 -85.8907 3.37439 7.87351 120.092 75.5343 58.4939 14.3209 0.250752 -2.02126 -167.277 84.4999 48.8109 -178.205 4.25852 -17.4977 -1.32915e-005 38.2899 3.70825e-005 -95.1486 9.52939 0.615184 1.25354e-006 13.9501 1.54818e-006 8.44309 -0.598447 -8.09414 -72.0648 39.0385 39.3397 33.3638 2.10362 14.835 0.588947 0.308273 6.35287 -99.6409 81.413 100.35 -0.0181409 2.77757e-005 -0.117315 -0.124139 0.00241112 -0.799296 -79.8382 79.5773 80.5374 -0.00022577 -0.000220926 2.2196e-005 -0.000956218 0.000122891 -2.73187e-005 -66.7416 80.4058 67.2171 -0.000437126 1.59425e-005 -2.73192e-005 -0.000136595 -0.000109295 -5.46394e-005 -6.42159 81.2158 8.01779 -0.000218559 1.68991e-005 0.000212142 0.000901594 -0.000184814 -0.000218563 -59.9282 75.5373 58.5147 46.373 30.8228 -9.95018 -167.277 84.4999 48.8109 143.254 -8.9541 -1.83474 4.3863e-006 6.25373 2.8004e-005 -110.323 14.1815 0.589631 -6.56829e-006 21.2242 2.86193e-006 17.4355 0.257669 1.68023 -72.0648 39.0385 39.3397 33.3638 2.10361 14.835 0.588946 0.308273 6.35287 -99.6409 81.413 100.35 -0.0181409 3.00751e-005 -0.117315 -0.124139 0.00241113 -0.799296 -79.8382 79.5773 80.5374 -0.000260645 -0.000218569 2.35655e-005 -0.000956224 0.000122992 -2.73273e-005 -66.7416 80.4058 67.2171 -0.000437131 1.48782e-005 -2.73256e-005 -0.000136602 -0.000109287 -5.4648e-005 -6.42159 81.2158 8.01779 -0.000218565 1.9575e-005 0.000212292 0.000901585 -0.00019125 -0.000218572 0.000811311 0.56661 89.91 9.7284 29.9376 8.15542 3.65003e-005 37.3091 -2.49521e-005 4.29264 54.0528 -4.66438 2.22061e-005 81.2247 -2.2399e-005 104.877 20.2182 33.8897 -35.4947 1.10278e-005 2.1362e-006 -180 -0.566579 -90.09 42.8969 -2.55078 -8.91184 -3.00508e-007 13.1902 -6.90725e-009 37.8881 2.98153 -0.00486524 3.97525e-007 4.40079 4.69457e-008 -33.5483 10.1672 -9.86472 -89.0893 5.67508 1.30845 
-120.343 163.436 343.914 -158.64 -60.8053 -164.275 -180 4.29621e-031 -90 4.89214 2.26023 5.26163 9.94212 6.03848 4.18849 9.91218 6.09087 4.18213 65.1256 -7.75149 -46.5173 -85.6244 2.4263 7.1177 120.092 75.5343 58.4939 15.3755 0.436224 -2.16179 -167.277 84.4999 48.8109 -176.848 5.30086 -16.9434 -1.47729e-005 40.0424 3.80183e-005 -85.2383 12.8351 0.62238 1.11641e-006 18.7612 1.58683e-006 6.42036 -0.69623 -12.3654 -72.0648 39.0385 39.3397 33.3638 2.10362 14.835 0.588947 0.308273 6.35287 -99.6409 81.413 100.35 -0.0181409 2.77757e-005 -0.117315 -0.124139 0.00241112 -0.799296 -79.8382 79.5773 80.5374 -0.00022577 -0.000220926 2.2196e-005 -0.000956218 0.000122891 -2.73187e-005 -66.7416 80.4058 67.2171 -0.000437126 1.59425e-005 -2.73192e-005 -0.000136595 -0.000109295 -5.46394e-005 -6.42159 81.2158 8.01779 -0.000218559 1.68991e-005 0.000212142 0.000901594 -0.000184814 -0.000218563 -59.9282 75.5373 58.5147 45.5013 29.0747 -9.43806 -167.277 84.4999 48.8109 142.991 -6.47344 3.42257 2.4198e-006 10.2165 2.82858e-005 -107.65 16.4121 0.6056 -6.74868e-006 24.512 2.93207e-006 15.0716 0.414556 3.13292 -72.0648 39.0385 39.3397 33.3638 2.10361 14.835 0.588946 0.308273 6.35287 -99.6409 81.413 100.35 -0.0181409 3.00751e-005 -0.117315 -0.124139 0.00241113 -0.799296 -79.8382 79.5773 80.5374 -0.000260645 -0.000218569 2.35655e-005 -0.000956224 0.000122992 -2.73273e-005 -66.7416 80.4058 67.2171 -0.000437131 1.48782e-005 -2.73256e-005 -0.000136602 -0.000109287 -5.4648e-005 -6.42159 81.2158 8.01779 -0.000218565 1.9575e-005 0.000212292 0.000901585 -0.00019125 -0.000218572 0.000811311 0.56661 89.91 12.4374 30.249 12.2153 3.43684e-005 33.2098 -2.37206e-005 7.69691 52.5237 -8.64054 1.80989e-005 79.2679 -1.83506e-005 110.102 17.2908 24.6875 -35.4947 1.04917e-005 2.02923e-006 -180 -0.566579 -90.09 34.3986 -3.84705 -10.173 -3.00779e-007 10.9799 -6.85043e-009 53.5375 2.88168 -0.00639637 3.97669e-007 4.22549 4.69349e-008 -36.1293 11.9405 -11.2913 -69.7924 1.77408 -1.64971 
